<?xml version="1.0" encoding="UTF-8"?><svg xmlns="http://www.w3.org/2000/svg" viewBox="0 0 91.5 82.91"><defs><style>.d{fill:#4d4d4d;}.e,.f{stroke-width:2px;}.e,.f,.g{fill:none;stroke:#4d4d4d;stroke-miterlimit:10;}.f,.g{stroke-linecap:round;}.g{stroke-width:1.91px;}</style></defs><g id="a"/><g id="b"><g id="c"><g><path class="g" d="M30.19,37.91c1.02,7.43,2.09,14.88,3.6,22.5,.65,2.06,2.2,3.18,3.71,4,1.22,.66,2.58,1.04,3.97,1.11,15.58,.8,33.12-.11,48.53-.11"/><path class="f" d="M1,1c7.16,.04,13.25,.04,20.1,.04,1.52,0,2.28,1.81,3.05,3.62,.17,.76,.33,1.51,.48,2.26"/><path class="e" d="M24.63,6.91c2.59,10.5,4.04,20.72,5.56,31"/><path class="e" d="M33.1,55.41h54.02c1.04,0,1.88-.84,1.88-1.88V26.29c0-1.04-.84-1.88-1.88-1.88H28.13"/><g><circle class="e" cx="84.5" cy="75.91" r="6"/><circle class="d" cx="84.5" cy="75.91" r="2.5"/></g><g><circle class="e" cx="50.5" cy="75.91" r="6"/><circle class="d" cx="50.5" cy="75.91" r="2.5"/></g></g></g></g></svg>