<?xml version="1.0" encoding="UTF-8"?><svg xmlns="http://www.w3.org/2000/svg" viewBox="0 0 172.97 195.53"><defs><style>.d{opacity:.9;}.e{opacity:.8;}.f{fill:#646464;}</style></defs><g id="a"/><g id="b"><g id="c"><g class="d"><g class="e"><g><path class="f" d="M164.05,35.03c-.32-1.57-1-3.02-1.55-4.5-.75-1.4-1.4-2.84-2.34-4.11-.8-1.36-1.91-2.5-2.87-3.73-1.15-1.08-2.17-2.28-3.45-3.21-4.82-4.05-10.77-6.58-16.99-7.77-4.1-.75-8.22-.92-12.27-.67-4.04,.35-7.99,1.2-11.75,2.62-3.72,1.46-7.33,3.38-10.45,5.96l-1.17,.97-1.11,1.04-.28,.26-.14,.13-.23,.26-.93,1.09-.93,1.09c-.31,.36-.61,.68-.95,1.26-1.3,2.04-2.6,4.06-3.88,6.25-1.22,2.06-2.45,4.12-3.69,6.2-.89-1.59-1.78-3.18-2.68-4.79-.95-1.65-1.89-3.37-2.85-4.96-.48-.79-.96-1.58-1.44-2.37l-.72-1.19c-.23-.31-.46-.58-.69-.87-.88-1.08-2-2.55-2.42-2.89-3.53-3.83-7.9-6.67-12.56-8.71-2.35-.98-4.79-1.75-7.3-2.32-1.26-.24-2.52-.51-3.82-.64l-.84-.11s-.09,0-.15,0h-.55c-.73,0-1.47-.01-2.21-.02l-4.48-.14-1.13-.03h-.21l-.36,.02-2.03,.21-1.02,.1c-.34,.05-.67,.13-1.01,.19-.67,.13-1.35,.26-2.02,.38-1.35,.28-2.66,.72-4.01,1.07-5.25,1.77-10.27,4.63-14.42,8.58-4.06,4.01-7.35,9-8.97,14.68-.93,2.8-1.27,5.79-1.48,8.76-.09,2.88,.27,5.85,1.15,8.5,.08,.29,.19,.64,.33,1.03,.09,.23,.1,.3,.16,.43,0,.02,.19,.37,.3,.59,.13,.25,.26,.5,.39,.76l.49,.79c.34,.52,.67,1.05,.99,1.55,1.31,1.98,2.49,3.5,2.72,2.89,3.33,5.61,6.63,11.18,9.91,16.72,3.31,5.55,6.6,11.06,9.88,16.55,6.61,10.95,13.29,21.74,20.23,32.33,5.74,8.96,10.88,18.81,16.62,27.78,3.24,4.95,6.33,9.97,9.35,14.99l2.25,3.77,.92,1.56,.65,1.14c.92,1.61,1.85,3.21,2.77,4.81,.89-1.31,1.81-2.69,2.75-4.13l1.43-2.24,2.12-3.41c1.12-2.08,3.36-6.68,4.46-8.31,13.28-19.2,23.33-38.36,34.46-57.39,4.44-7.43,7.79-13.24,12.23-20.22,.01-.88,1.13-2.53,2.24-4.61,.83-1.34,2.68-4.15,5.01-7.66,1.17-1.75,2.46-3.68,3.81-5.69,1.39-1.96,2.82-4,4.25-6.02,2.73-3.92,4.87-7.71,5.87-10.81,1.06-3.09,1.19-5.49,1.38-6.18,.03-.17,.09,.63,0,2.16-.09,1.53-.44,3.77-1.39,6.45-.94,2.68-2.57,5.77-4.63,9.1-1.04,1.67-2.16,3.38-3.33,5.19-1.2,1.83-2.26,3.65-3.41,5.5-4.5,7.37-9,14.74-12.34,20.21-3.32,5.48-5.44,9.08-5.17,8.89,.55-.6,6.62-10.31,12.82-20.28,3.12-4.99,6.19-10.03,8.79-14.05,2.64-3.95,4.42-6.81,4.91-7.63-1.19,2.19-2.48,4.31-3.77,6.4-.63,1.04-1.31,2.1-1.92,3.14-.61,1.04-1.2,2.07-1.8,3.08-2.36,4.06-4.61,7.92-6.75,11.59-4.27,7.34-8.09,13.91-11.5,19.78-6.79,11.74-11.93,20.63-15.7,27.14-7.5,13.04-9.43,16.57-7.97,14.28,2.91-4.58,19.37-32.47,31.93-54.31,2.12-3.3,4.5-7.42,7.35-12.34,1.44-2.45,2.99-5.1,4.66-7.96,1.7-2.87,3.71-5.82,5.64-9.01-1.07,1.95-2.48,4.4-4.01,7.09-1.5,2.7-3,5.62-4.48,8.41-2.93,5.57-5.59,10.62-6.7,12.48-10.01,17.37-7.82,15.1-20.02,34.43-5.01,7.93-11.49,18.89-17.76,29.6-3.13,5.35-6.21,10.63-9.02,15.44-1.41,2.4-2.74,4.68-3.98,6.8-.71,1.2-1.4,2.35-2.05,3.45-.86,1.42-1.68,2.77-2.45,4.04,.74-1.36,1.6-2.96,2.56-4.73l.35-.65,.26-.51,.49-.97c.34-.66,.69-1.35,1.05-2.06,1.46-2.85,3.12-6.05,4.87-9.34,3.51-6.58,7.38-13.5,10.71-18.64-6.42,9.5-9.95,15.78-13.08,21.71-1.55,2.97-3.05,5.84-4.7,9.01-.57,1.02-1.15,2.06-1.75,3.14-.65,1.14-1.32,2.31-2.01,3.53-1.42,2.46-3,5.14-4.76,8.06-2.27-3.47-4.88-7.59-7.78-12.29-.46-.71-.93-1.46-1.42-2.22-.38-.58-.78-1.18-1.19-1.8-.84-1.22-1.72-2.51-2.63-3.85-1.55-2.68-3.01-5.21-4.85-8.38-12.06-19.42-23.33-36.01-35-55.23,1.05,1.62,1.26,2.94,2.24,4.65,9.51,16.92,19.19,30.29,29.87,47.8,1.97,3.41,5.53,7.63,7.73,11.16,.91,1.43,1.77,2.84,2.61,4.23,1.04,1.74,2.06,3.45,3.07,5.14,2.48,4.21,4.91,8.33,7.35,12.48,1.27-1.92,2.56-3.85,3.85-5.8-1.24,2.07-2.49,4.18-3.85,6.46-3.04-4.64-6.28-9.66-9.6-14.87-2.13-3.34-4.31-6.75-6.5-10.18-4.21-6.67-8.48-13.42-12.57-19.9-1.93-2.94-4.62-6.26-6.31-8.43,4.1,6.66,8.25,13.33,12.45,20.01,2.79,4.38,5.81,8.97,8.92,13.65l2.35,3.53,1.6,2.43,1.97,3.02c2.56,3.91,5.13,7.84,7.69,11.77,6.24-10.42,12.42-20.74,18.06-30.16,4.46-7.33,8.64-13.87,12.29-18.88,.28-.52,.56-1.04,1.12-2.09,.2-.22,.45-.55,.71-.93,2.03-3.28,4.54-7.16,7.03-10.52l-5.74,8.98c-4.18,7.64-8.78,15.49-13.6,23.45-2.43,3.97-4.89,7.99-7.37,12.03-4.14,6.64-8.32,13.33-12.5,20.04-4.7-7.46-9.41-14.94-14.1-22.4-3.06-4.82-6.14-9.61-9.22-14.32-3.75-5.53-8.9-15.39-12.66-20.92-10.87-16.39-21.56-33.91-31.45-51.02-3.39-5.78-6.78-11.56-10.17-17.33l-5.17-8.73-1.29-2.18-.61-1.2-.41-.8-.33-.84c-.7-1.88-1.16-3.77-1.46-5.66-.3-1.89-.43-3.78-.41-5.66-.01-1.91,.28-3.71,.48-5.53,.59-3.61,1.49-7.18,2.99-10.51,2.79-6.75,7.54-12.51,13.12-16.91l2.18-1.54c.37-.25,.72-.52,1.1-.76l1.15-.67c.77-.44,1.53-.9,2.3-1.32l2.39-1.13c.4-.18,.79-.38,1.2-.55l1.24-.46,2.47-.91,2.53-.7c.84-.24,1.68-.47,2.54-.61l2.56-.48c.85-.17,1.72-.2,2.58-.31l1.29-.13c.41-.03,.9-.13,1.44-.09l2.51,.09,4.98,.17,1.29,.04c.53,.01,.96,.12,1.38,.18,.85,.15,1.7,.23,2.53,.44,6.72,1.32,13.1,4.12,18.56,8.07,2.72,1.98,5.23,4.28,7.38,6.79,2.05,2.42,3.83,5.09,5.37,8.2,1.05-1.73,2.2-3.48,3.63-5.13,1.38-1.71,3-3.27,4.59-4.68,3.29-2.8,6.97-5.08,10.87-6.79,3.91-1.69,8.04-2.8,12.2-3.36,2.08-.3,4.18-.41,6.27-.38,2.09-.09,4.17,.2,6.23,.37,1.54,.17,3.09,.36,4.61,.59-.64-.24-1.29-.4-1.93-.6,.72,.16,1.44,.25,2.14,.48l2.09,.64c.52,.12,1.05,.23,1.56,.36l1.52,.5,1.52,.5,.76,.25,.73,.32,2.9,1.29,2.74,1.56c3.56,2.21,6.73,4.97,9.28,8.14,.47,.7,.46,.76,.16,.45-.16-.15-.35-.43-.66-.71-.3-.29-.67-.64-1.06-1.02-.39-.38-.82-.8-1.25-1.22-.44-.41-.95-.76-1.41-1.13-.93-.7-1.75-1.36-2.36-1.6l.56,.4c.17,.15,.34,.3,.5,.44l.88,.77,.86,.75-.83-.08c1.18,.76,1.55,1.57,2.12,2.37-3.13-3.06-6.82-5.58-10.82-7.48-4-1.93-8.37-3.09-12.79-3.68-8.87-1.19-18.16,.26-26.1,4.38,.53-.1,1.2-.34,1.98-.59,.78-.26,1.63-.61,2.53-.89l1.33-.46,1.3-.38c.42-.12,.82-.24,1.19-.35l1.03-.22c2.83-.76,5.74-1.34,8.63-1.39,.72-.04,1.44-.08,2.15-.12,.71,.04,1.42,.07,2.12,.11,.7,.04,1.4,.07,2.08,.14,.68,.11,1.35,.23,2.01,.34,1.87,.15,3.67,.69,5.51,1.1,1.77,.62,3.59,1.12,5.26,1.98,1.74,.71,3.32,1.72,4.93,2.64,1.5,1.09,3.06,2.1,4.39,3.38,2.75,2.42,5.14,5.19,6.88,8.23,.22,.38,.49,.73,.68,1.12l.57,1.17c.37,.78,.82,1.52,1.06,2.34,.3,.8,.59,1.59,.88,2.38,.21,.81,.42,1.62,.63,2.42,.16,.59,.18,1.21,.24,1.82,.05,.6,.11,1.2,.16,1.8,.02,1.2-.08,2.39-.11,3.54-.09,.89-.2,1.1-.32,.81-.06-.14-.11-.41-.17-.78-.07-.3-.15-.66-.23-1.09-.19-.85-.19-1.94-.51-3.07-.12-.57-.23-1.16-.33-1.75-.09-.59-.31-1.16-.43-1.73ZM13.78,68.98c-1.3-2.39-2.59-4.75-3.88-7.11-.64-1.19-1.27-2.37-1.91-3.57-.32-.6-.65-1.18-.93-1.83l-.46-.99c-.17-.37-.27-.75-.38-1.08-.7-1.92-1.13-3.88-1.37-5.87-.27-2.45-.43-5.13-.17-7.84,.64-5.26,2.32-10.34,4.91-14.87,2.58-4.53,6.06-8.48,10.12-11.64-4.22,2.96-8.04,6.88-10.95,11.87-2.91,4.98-4.88,11.03-5.06,17.88,.15-4.42,.82-8.7,2.25-12.71,1.45-3.99,3.51-7.66,6.01-10.9,2.48-3.26,5.52-5.98,8.76-8.24,1.59-1.18,3.35-2.08,5.05-3.04,1.79-.8,3.52-1.66,5.37-2.22,1.8-.7,3.69-1.08,5.52-1.57l2.82-.47c.47-.07,.93-.17,1.4-.21l1.42-.11c.93-.05,1.9-.2,2.79-.18l2.84,.16,5.69,.32c.8,.06,1.78,.3,2.68,.44,.92,.16,1.81,.42,2.72,.63,1.8,.48,3.56,1.06,5.28,1.73,3.44,1.36,6.73,3.12,9.73,5.29,2.67,1.81,5.13,3.94,7.31,6.35,.63,.73,1.32,1.6,1.99,2.4,.67,.94,1.33,1.99,2,2.99,.65,1.07,1.29,2.14,1.94,3.21,.6,1.08,1.21,2.15,1.82,3.24,1.71-2.95,3.79-6.37,5.98-9.33l1.03-1.21,.51-.6c.17-.19,.36-.43,.48-.54l1.69-1.68,1.78-1.58,1.86-1.47c2.54-1.88,5.27-3.47,8.12-4.76l-1.55,.63-1.51,.72c-1.02,.45-1.97,1.04-2.95,1.56-1.9,1.16-3.77,2.39-5.46,3.84-.89,.68-1.67,1.48-2.49,2.23-.42,.41-.91,.99-1.36,1.47-.46,.5-.92,.98-1.35,1.62l-1.31,1.77-1.23,1.82c-.85,1.21-1.51,2.4-2.25,3.57-.73-1.31-1.36-2.62-2.15-3.89l-1.13-1.88-1.18-1.77c-.2-.29-.39-.59-.59-.86l-.61-.75-1.2-1.49c-.77-.8-1.49-1.68-2.32-2.43-1.58-1.6-3.38-2.97-5.2-4.31-1.87-1.26-3.8-2.47-5.86-3.45-2.03-1.04-4.17-1.84-6.34-2.58-2.19-.66-4.41-1.25-6.69-1.61l-1.71-.28-1.73-.07-3.45-.13-3.45-.13c-.28,0-.59-.04-.9-.02l-.87,.08-1.73,.17c-9.21,1.01-18.41,4.62-25.53,11.08-3.56,3.2-6.61,7.04-8.88,11.34-2.28,4.29-3.78,9.04-4.42,13.91-.13,1.22-.34,2.43-.36,3.7-.05,1.26-.02,2.52,.07,3.78,.19,2.52,.67,5.05,1.53,7.53,.11,.32,.22,.59,.38,1.01,.07,.2,.18,.36,.27,.57l.22,.43c.28,.54,.54,1.1,.85,1.59l1.77,3.01,3.55,6.03c4.7,7.99,9.4,16,14.12,24.03,9.48,16.03,19.12,32.09,28.99,48.19-13.63-23.93-27.11-46.84-40.75-70.88Zm5.86,8.17c5.74,9.4,11.48,18.65,17.21,27.75,15.33,24.92,32.14,52.1,43.46,67.33-14.13-21.57-28.74-43.96-43.46-67.33,13.77,22.38,3.93,6.14-14.68-23.81-.48-.66-1.4-2.13-2.53-3.94Z"/><path class="f" d="M95.24,17.01c4.51-4.17,9.94-7.2,15.63-9.17,5.72-1.9,11.73-2.69,17.57-2.32-4.44-.57-8.57-.88-13.93,.2-2.6,.53-5.19,1.4-7.74,2.5-2.56,1.09-5.03,2.52-7.38,4.17-1.19,.81-2.3,1.75-3.41,2.68l-1.6,1.49c-.54,.5-.89,.92-1.34,1.38-1.64,1.77-2.92,3.5-3.98,5.3-.85-1.65-1.72-3.22-2.72-4.59-.44-.68-1.07-1.42-1.61-2.13-.12-.16-.32-.38-.51-.59l-.58-.64c-.39-.42-.76-.86-1.17-1.26-4.09-4.15-9.04-7.55-14.5-9.91-2.72-1.22-5.58-2.13-8.5-2.83-.73-.16-1.47-.34-2.21-.48l-2.23-.36c-.18-.03-.42-.07-.65-.1-.25-.03-.53-.03-.77-.04l-1.06-.04-2.12-.08-4.24-.16-1.09-.04c-.27,0-.54-.02-.81,0l-.64,.07-2.28,.23c-3.05,.33-6.08,.99-9.06,1.88-5.96,1.79-11.67,4.81-16.57,8.95-4.89,4.13-9.06,9.36-11.76,15.37l-.95,2.28c-.15,.38-.32,.76-.46,1.15l-.37,1.18-.72,2.37c-.24,.79-.36,1.61-.53,2.42-.15,.81-.35,1.62-.46,2.44l-.26,2.46c-.21,1.61-.26,3.38-.18,5.09,.15,3.43,.74,6.89,2.05,10.34l.31,.77c.11,.31,.28,.58,.45,.9l.56,1.07c.38,.72,.77,1.29,1.16,1.94l2.33,3.81c3.09,5.04,6.18,10.09,9.28,15.16,1.17,2.02,3.82,6.44,6.03,9.63-3.57-6.01-7.11-11.97-10.63-17.9-1.79-2.99-3.57-5.97-5.35-8.94l-1.34-2.23c-.45-.74-.89-1.47-1.32-2.33-.15-.31-.59-1.05-.82-1.72-.2-.49-.37-.99-.53-1.48-.33-.99-.58-1.98-.8-2.97-.43-1.98-.65-3.95-.73-5.92-.04-.98-.03-1.97,.01-2.95,.04-.99,.18-1.91,.27-2.86,.14-1.89,.59-3.75,.98-5.6,.19-.93,.53-1.82,.79-2.73,.29-.9,.54-1.81,.94-2.68l1.1-2.61c.4-.85,.87-1.67,1.31-2.5l.67-1.24,.77-1.18c.52-.78,1.03-1.57,1.57-2.33,1.19-1.44,2.28-2.96,3.63-4.24,.66-.65,1.27-1.35,1.97-1.96l2.1-1.8c2.89-2.28,5.97-4.3,9.28-5.79,3.26-1.61,6.73-2.67,10.21-3.52l2.64-.5c.44-.08,.88-.18,1.32-.23l1.33-.14,2.7-.28c.26-.04,.58-.02,.87-.01l.64,.02,1.25,.04,5.02,.18,1.25,.05,.74,.02c.3,.01,.55,.06,.79,.1l2.61,.42c6.92,1.35,13.52,4.14,19.16,8.23,2.81,2.03,5.42,4.43,7.62,7.02,.45,.58,.93,1.16,1.38,1.75l1.23,1.79,1.16,1.94,1.08,2.09c1.51-2.53,3.51-5.01,6.18-7.5Z"/><path class="f" d="M61.47,154.82c4.75,7.25,9.49,14.48,13.84,21.53-3.56-6.64-8.91-15.4-13.25-22.44-6.23-9.82-12.47-19.64-18.56-29.38,5.73,9.96,11.62,20.01,17.97,30.29Z"/><path class="f" d="M22.2,89.5c1.22,2.05,2.43,4.09,3.66,6.17,5.63,9.5,11.56,19.14,17.63,28.86-6.03-10.52-11.99-20.93-18.03-31.48-.41,.28-1.72-1.32-3.26-3.55Z"/></g></g></g></g></g></svg>