<?xml version="1.0" encoding="UTF-8"?><svg xmlns="http://www.w3.org/2000/svg" viewBox="0 0 173.62 190.39"><defs><style>.d{opacity:.9;}.e{fill:#4d4d4d;}</style></defs><g id="a"/><g id="b"><g id="c"><g class="d"><g><path class="e" d="M167.55,63.58c.76-1.29-.47,.41-1.51,1.66-1.05,1.24-1.88,2.12-.3-.53-1.37,1.68-3.19,4.41-4.87,7.21-1.7,2.9-3.42,5.95-4.87,8.15-1.07,.05,.75-4.33-4.83,3.31-7.12,10.44,.66,2.32-5.25,11.93l4.3-6.42c-2.87,7.34-13.45,22.41-20.21,33.81-6.15,7.86-12.75,14.32-19.27,25.54,.26-.68,1.69-3.55,.96-3.25-1.62,1.79-3.67,5.48-4.83,7.67-2.75,6.28,2.18-.86,1.49,1.71-2.58,5.05-4.8,9.96-9.47,16.41l-6.86,7.34-.12,.5-.07,.25-.12,.33c-.17,.44-.35,.91-.57,1.39-.42,.96-.93,1.99-1.5,3.06-1.14,2.14-2.53,4.43-4,6.74-1.15-1.87-2.36-3.9-3.59-5.99-1.13-1.92-2.31-3.94-3.54-6.04-1.76-3.05-3.74-6.31-6.12-9.64-.33-2.88-9.17-13.69-9.5-16.58-3.36-5.3,2.24-2.8,.35-7.63-4.05-7.97,3.76,4.92-.29-3.05,5.55,7.93-1.21,4.38,6.04,15.14l.05-.78c3.45,4.14,7.11,12.72,10.14,15.15,7.17,11.95-1.65,.75,1.1,7.09,1.33,1.31,3.53,4.23,5.36,6.53,1.34-2.59,2.51-4.93,3.18-6.57,.16-.42,.32-.82,.45-1.17,.16-.42,.3-.8,.39-1.13,.19-.66,.24-1.12,.09-1.32l-3.95,6.33c.54-.93,.08-.83,.27-1.38,.27-.09,.63-.53,.98-1.11,.17-.29,.35-.62,.5-.95l.22-.5,.1-.25,.06-.14,.12-.24c1.25-2.54,2.43-5.32,3.48-7.72,2.1-4.79,3.65-7.99,4.12-4.44-.53,1.36-2.68,4.52-2.85,5.74,1.19,.1,4.68-6.47,7.72-11.13,2.12-5.44,4.05-11.96,9.34-19.24,1.89-2.48,1.46-.58,3.34-3.05,8.75-16.14,10.48-14.15,20.27-30.75,7.5-9.48,14.53-22.47,22.02-31.94-.89,.52,.08-1.23,1.45-3.36,1.35-2.14,3.24-4.58,3.94-5.58,.65-.6,2.03-2.18,3.46-4.22,1.43-2.03,2.87-4.57,3.59-6.9-1.07,2.66,.02,1.22-.61,3.15,2.18-5.11,2.87-8.39,3.52-10.36,.33-.99,.59-1.66,.86-2.13,.27-.47,.54-.73,.76-.9,.19,4.64,.01,7.35-.49,10.15-.28,1.39-.65,2.83-1.35,4.45-.68,1.64-1.66,3.48-3.11,5.63Z"/><path class="e" d="M44.08,123.91c2.77,.8-9.17-15.82-2.25-8.82-3.19-5.77-5.08-8.14-7.51-10.96,3.44,6.75-1.21-1.41,.21,2.48-6.83-10-13.32-19.91-19.57-29.7-3.11-4.92-6.2-9.8-9.26-14.63-.76-1.21-1.52-2.43-2.28-3.64-.2-.29-.36-.64-.54-.96l-.58-1.07c-.22-.51-.35-.81-.49-1.19-.14-.37-.27-.74-.39-1.11-.95-2.97-1.39-6-1.43-9.02,.64-8.92,3.33-16.83,7.65-23.82,2.23-3.44,4.87-6.61,7.91-9.46,3.03-2.88,6.56-5.26,10.38-7.31,1.27-.43,2.26-.79,3.08-.95,.81-.16,1.41-.23,1.83-.24,.83-.02,.96,.22,.71,.58-.5,.74-2.46,1.94-3.3,2.91,.49-.19,.97-.4,1.46-.57l1.5-.46c1.01-.29,1.99-.67,3.02-.85l3.07-.67,3.11-.42c-4.16,.82-8.13,2.34-11.82,4.19-.1,.79,5.05-1.11,8.13-1.01,1.07-.35,2.18-.5,3.28-.73-.44,.5-1.12,.92-2,1.27-.87,.42-1.92,.82-3.13,1.17-1.21,.37-2.52,.87-3.97,1.28l-2.18,.82c-.38,.13-.76,.27-1.14,.41l-1.13,.51c-3.1,1.25-6.19,3.11-8.89,5.24-2.75,2.09-4.83,4.72-6.25,7.08,.96-1.36,1.67-2.35,2.17-3.05,.55-.67,.86-1.08,.99-1.32,.26-.47-.19-.21-.83,.23-.66,.42-1.42,1.1-1.83,1.35-.42,.25-.52,.06,.25-1.22l-1.38,1.7c-.47,.56-.93,1.13-1.31,1.75,1.03-1.65,2.6-4.12,5.06-6.94,2.47-2.8,6.01-5.81,10.65-8.18l-2.43,1.2-2.32,1.41c-.38,.24-.78,.46-1.14,.72l-1.09,.81c-.71,.56-1.47,1.05-2.14,1.66-2.77,2.32-5.13,5.06-7.18,7.98-1.95,2.99-3.5,6.2-4.59,9.53-.27,.83-.45,1.69-.67,2.53l-.32,1.26c-.08,.42-.14,.86-.2,1.28-.13,.85-.26,1.7-.38,2.55l-.13,2.56c-.21,3.39,.26,6.76,1.21,9.88,.24,.78,.53,1.54,.84,2.27,.15,.36,.33,.75,.5,1.06l.62,1.01c.87,1.36,1.86,2.66,2.77,3.97,3.74,5.2,7.35,10.21,10.79,14.97-.55-.46-1.76-1.87-.84,.06,4.4,7.18,8.63,10.37,11.07,13.2l-2.43-2.83c2.1,4.85,7.63,11.45,11.11,16.7,2.89,6.29,4.45,10.68,11.15,20.18l-.84,.06,4.65,8.16c-1.34-1.91-1.1-.93-.97-.44-.55-.46-.67-.95-1.47-2.4-1.26,.09,0,4.99,2.09,9.84-.8-1.44-1.59-2.88-2.27-3.84,1.85,3.87,9.01,16.84,4.15,11.19-6.54-10.52-4.27-11.68-10.56-21.22Z"/><path class="e" d="M76.83,166.73c-4.24-7.94,2.01,1.75,1.63-.35l4.33,6.78c-.58,.64-4.91-6.14-5.96-6.43Z"/><path class="e" d="M81.59,14.59c.03,.27,.34,.74,.83,1.33,.47,.61,1.08,1.37,1.77,2.18,.59,.77,1.02,1.33,1.33,2.02,.15,.15,.27,.26,.37,.32,.44-1.24,.57-1.92,.81-2.52l.09-.21,.02-.05s0-.01,.07-.1c.1-.13,.21-.26,.32-.4,.43-.54,.91-1.1,1.43-1.71,.56-.58,1.18-1.2,1.87-1.86,.7-.65,1.52-1.31,2.41-2.04-1.18,1.71-1.24,2.31-.62,2.22,.62-.09,1.9-.89,3.61-1.83,.82-.51,1.81-.97,2.79-1.51,1.01-.51,2.07-.99,3.13-1.45,2.14-.87,4.29-1.57,5.98-1.87-2.15,.98-5.04,2.67-7.96,4.82-2.94,2.14-5.9,4.69-8.73,7.09,.04-.26-.23-.17-.68,.17-.23,.17-.5,.4-.81,.67-.27,.25-.53,.52-.81,.81-1.16,1.14-2.17,2.59-2.78,3.53-.05,.15-.1,.29-.14,.4-.41-.25-.58,0-.7,.4-.12,.35-.18,1-.53,1.02-.17,.01-.45-.12-.9-.53-.22-.2-.48-.48-.79-.84-.3-.37-.66-.81-1.12-1.29-.44-.49-.95-1.08-1.52-1.77l-1.57-1.57c-.57-.57-1.26-1.15-1.97-1.83-.76-.63-1.57-1.35-2.51-2.06-1.27-1.28-3.88-3.01-6.14-4.31-2.26-1.3-4.16-2.19-3.67-2.61-.54-.36-1.14-.54-1.75-.71-.61-.16-1.22-.29-1.85-.38-.63-.1-1.26-.21-1.88-.41-.63-.17-1.26-.41-1.89-.8-.42-.27-.85-.53-1.29-.76,4.16,.58,8.26,1.76,12.15,3.5,.34,.37,1.07,1.03,2.07,1.59-.84-.94,2.37,.39,4.88,1.7,1.25,.65,2.37,1.21,2.79,1.23,.42,.02,.26-.64-1.28-2.24-4.89-3.79-10.55-6.47-16.46-8.14-2.11-.77-1.61-.96,.28-.74,1.86,.3,5.12,1.07,8.23,2.5,4.31,2.5,6.04,4.11,7.64,5.15,.76,.58,1.48,1.04,2.33,1.61,.81,.62,1.86,1.23,3.12,2.3Z"/><path class="e" d="M38.39,3.69l-1.02-.17,3.95-.61c.2-.03,.43-.02,.62-.03h.48l.96-.03,1.92-.04,3.85-.08,.96-.02h.49c.21-.02,.44-.01,.63,0l2.01,.21-1.88-.16c-.32-.05-.84-.02-1.08,0l-.9,.04-3.61,.15-3.61,.15c-.25,.02-.74,0-1.03,.08l-.92,.16-1.83,.33Z"/><path class="e" d="M122.96,.16c-.81,.12-1.6,.2-2.37,.26l-2.28,.28c-.76,.07-1.51,.21-2.27,.37-.76,.17-1.53,.31-2.3,.61l-.71-1.29c.83-.12,1.66-.19,2.5-.24,.83-.05,1.66-.14,2.49-.13l2.48-.02,2.46,.16Z"/><path class="e" d="M6.11,45.07c.67,1.76,1.14,4.86,2.23,7.48l.21,.48,.11,.23c.04,.09,.08,.16,.08,.16-.03-.08,.24,.39,.43,.7,.37,.65,.89,1.33,1.32,1.93,.89,1.21,1.71,2.2,2.39,2.76-1.46-2.35-1.21-1.39-1.76-1.85l2.5,4.74c-1.08-1.28-2.09-2.6-3.06-3.95-.49-.68-.96-1.36-1.43-2.05-.25-.35-.47-.69-.65-1.03l-.5-.87-.15-.34c-.07-.16-.13-.33-.2-.49-.13-.33-.25-.67-.36-1.02-.22-.7-.41-1.42-.57-2.17-.31-1.49-.51-3.08-.6-4.71Z"/><path class="e" d="M154.31,8.8c4.67,3.1,7.41,5.19,10.03,7.79,.64,.66,1.33,1.31,1.97,2.08,.61,.79,1.25,1.64,1.91,2.59l.5,.73c.15,.27,.3,.54,.45,.82,.3,.56,.6,1.15,.93,1.77,.69,1.22,1.17,2.69,1.74,4.31,.74,2.86-2.03-3.08-.74,.96,.99,4.07,1.75,4.88,2.36,6.9l.17-1.71c-.08,.86-.08,2.16-.08,3.51-.07,1.36-.27,2.8-.44,3.94-.09,.58-.2,1.07-.34,1.41-.13,.36-.28,.61-.43,.73-.3,.24-.63-.08-1.01-1.28-.03-.99-.07-1.94-.12-2.87l-.09-1.36c-.08-.44-.17-.87-.25-1.3-.17-.85-.35-1.67-.53-2.47-.21-.79-.52-1.52-.78-2.25-.28-.72-.51-1.43-.84-2.08-.35-.64-.68-1.27-1.01-1.89-.35-.6-.62-1.22-1.03-1.76-.39-.55-.77-1.08-1.14-1.62-.39-.52-.71-1.07-1.13-1.55-.41-.48-.82-.96-1.22-1.44-.41-.48-.78-.97-1.19-1.44-.44-.45-.87-.9-1.29-1.37-.42-.46-.84-.94-1.26-1.43-.46-.45-.92-.91-1.38-1.4-.46-.48-.91-.99-1.37-1.51-.5-.48-1-.99-1.51-1.52-.22-.81-.44-1.67-.71-2.49l-3.13-1.85c-1.06-.58-2.17-1.05-3.25-1.58-.38-.34,.02-.69-2.27-1.51-2.44-.7-1.64-.17-.35,.59,1.32,.7,3.01,1.9,2.65,2.13-.52-.23-1.03-.48-1.55-.7l-1.61-.56c-1.08-.35-2.11-.8-3.22-1.03l-3.27-.81-3.31-.52c-1.58-.45,1.41-.12,.98-.38-1.51-.59-2.97-.74-4.33-.84-.68-.04-1.34-.1-1.99-.07-.65,.05-1.28,.09-1.9,.14-1.24,.09-2.45,.13-3.68,.25-1.23,.09-2.51-.03-3.91-.2,2.74-.49,5.54-.92,8.37-.97-10.2-.74-18.06,.75-24.95,3.44,4.8-2.18,9.25-3.63,13.52-4.63,1.07-.25,2.13-.43,3.17-.65,1.05-.17,2.09-.29,3.12-.43,2.07-.36,4.11-.36,6.15-.47,1.02-.07,2.04,.06,3.06,.08,1.02,.08,2.06,.06,3.07,.24,2.04,.32,4.13,.61,6.18,1.28,2.1,.53,4.13,1.44,6.23,2.38,2.02,1.11,4.13,2.27,6.07,3.89Z"/></g></g></g></g></svg>