<?xml version="1.0" encoding="UTF-8"?><svg xmlns="http://www.w3.org/2000/svg" viewBox="0 0 293.34 278.29"><defs><style>.d{stroke-width:4px;}.d,.e,.f{fill:none;stroke:#000;stroke-miterlimit:10;}.e{stroke-width:4.2px;}.f{stroke-width:4.08px;}</style></defs><g id="a"/><g id="b"><g id="c"><g><path class="d" d="M251.63,5.52s.03,.01,.05,.01c33.31,12.68,50.7,53.13,32,87.29l-82.92,151.42c-23.4,42.74-84.78,42.74-108.18,0L9.66,92.82c-2.82-5.15-4.81-10.44-6.05-15.75C-2.43,51.41,9.03,25.14,30.21,11.37"/><path class="f" d="M251.68,5.54s-.03-.01-.05-.02c-38.79-11.61-88.83,9.67-101.24,49.43"/><path class="e" d="M30.21,11.7C49.53,1.84,72.3-.5,93.24,5.02c17.58,4.63,33.72,14.78,45.07,29.1,5.32,6.7,9.55,14.28,12.35,22.4"/></g></g></g></svg>