<?xml version="1.0" encoding="UTF-8"?><svg xmlns="http://www.w3.org/2000/svg" viewBox="0 0 1100.09 630.49"><defs><style>.d{fill:#59574c;}</style></defs><g id="a"/><g id="b"><g id="c"><path class="d" d="M224.16,506.66C95.48,339.74,7.11,341.09,.4,273.52-10.49,163.97,204.91-9.53,403.61,.41c115.48,5.77,187.49,71.61,327.86,38.4,64.52-15.26,74.8-35.21,124.21-34.1,130.29,2.92,264.62,146.24,241.89,231.53-20.47,76.79-162.29,84.02-162.13,144.93,.12,44.05,74.33,53.48,76.54,93.71,4.54,82.5-297.99,218.41-414.82,122.9-54.03-44.17-38.74-113.64-87.98-128.11-71.61-21.04-143.97,114.13-226.18,90.32-25.81-7.48-38.09-26.42-58.83-53.32Z"/></g></g></svg>