<?xml version="1.0" encoding="UTF-8"?><svg xmlns="http://www.w3.org/2000/svg" viewBox="0 0 166.55 59.31"><defs><style>.d{fill:#fff;}.e{opacity:.8;}.f{fill:#ffc999;}</style></defs><g id="a"/><g id="b"><g id="c"><g><g><path class="d" d="M32.25,7.81V44.17h-3.58v-4.51c-1.52,1.72-3.23,3.01-5.13,3.88-1.9,.87-3.97,1.3-6.22,1.3-4,0-7.41-1.35-10.24-4.04-2.83-2.69-4.25-5.97-4.25-9.83s1.43-7.01,4.29-9.69c2.86-2.68,6.29-4.03,10.31-4.03,2.32,0,4.42,.46,6.3,1.37,1.88,.92,3.53,2.29,4.95,4.12V7.81h3.58Zm-14.53,12.71c-2.02,0-3.89,.46-5.6,1.39-1.71,.92-3.07,2.22-4.09,3.89-1.01,1.67-1.52,3.44-1.52,5.3s.51,3.61,1.53,5.3c1.02,1.69,2.39,3,4.11,3.94,1.72,.94,3.57,1.41,5.54,1.41s3.87-.47,5.65-1.4c1.78-.93,3.15-2.19,4.11-3.78,.96-1.59,1.44-3.38,1.44-5.37,0-3.03-1.08-5.57-3.23-7.61-2.15-2.04-4.8-3.06-7.95-3.06Z"/><path class="d" d="M64.27,35.47l3.06,1.5c-1.01,1.83-2.17,3.31-3.48,4.44-1.32,1.13-2.8,1.98-4.44,2.57s-3.51,.88-5.59,.88c-4.61,0-8.21-1.4-10.81-4.21-2.6-2.8-3.9-5.98-3.9-9.51,0-3.33,1.1-6.29,3.3-8.9,2.79-3.31,6.52-4.97,11.2-4.97s8.66,1.7,11.54,5.09c2.04,2.4,3.08,5.39,3.12,8.97h-25.42c.07,3.05,1.12,5.54,3.15,7.49,2.03,1.95,4.53,2.92,7.51,2.92,1.44,0,2.84-.23,4.2-.7,1.36-.46,2.52-1.08,3.47-1.85s1.98-2.01,3.09-3.72Zm0-7.07c-.49-1.8-1.19-3.24-2.12-4.32-.93-1.08-2.15-1.95-3.68-2.6-1.53-.66-3.13-.99-4.81-.99-2.77,0-5.16,.83-7.15,2.48-1.46,1.21-2.56,3.01-3.3,5.42h21.06Z"/><path class="d" d="M102.47,23.39l-2.88,1.66c-2.49-3.07-5.89-4.61-10.19-4.61-3.44,0-6.3,1.03-8.57,3.08-2.27,2.06-3.41,4.55-3.41,7.49,0,1.91,.52,3.71,1.57,5.4,1.05,1.69,2.48,3,4.31,3.93,1.82,.93,3.87,1.4,6.13,1.4,4.15,0,7.54-1.54,10.17-4.61l2.88,1.76c-1.35,1.89-3.16,3.35-5.44,4.39s-4.87,1.56-7.78,1.56c-4.47,0-8.17-1.32-11.11-3.95-2.94-2.64-4.42-5.84-4.42-9.62,0-2.54,.69-4.9,2.06-7.08,1.38-2.18,3.27-3.88,5.67-5.1s5.1-1.83,8.08-1.83c1.87,0,3.67,.27,5.42,.8,1.74,.53,3.22,1.22,4.43,2.07,1.21,.85,2.24,1.94,3.09,3.26Z"/><path class="d" d="M152.26,17.94h3.71v3.83c1.11-1.51,2.28-2.64,3.51-3.39,1.23-.75,2.51-1.12,3.84-1.12,1,0,2.08,.3,3.22,.89l-1.9,2.84c-.76-.3-1.4-.46-1.92-.46-1.21,0-2.38,.46-3.5,1.39-1.13,.92-1.98,2.36-2.57,4.3-.45,1.5-.68,4.52-.68,9.07v8.87h-3.71V17.94Z"/></g><ellipse class="f" cx="126.33" cy="30.9" rx="14.5" ry="12.55"/><g class="e"><line class="d" x1="45.43" y1="13.64" x2="72.33" y2="0"/><path class="f" d="M45.43,13.64c3.7-3.63,8.02-6.25,12.55-8.6,4.57-2.27,9.23-4.2,14.36-5.04-3.7,3.64-8.01,6.26-12.55,8.6-4.58,2.26-9.24,4.2-14.36,5.04h0Z"/></g></g></g></g></svg>